<?xml version="1.0" standalone="no"?>
<!DOCTYPE svg PUBLIC "-//W3C//DTD SVG 20010904//EN"
 "http://www.w3.org/TR/2001/REC-SVG-20010904/DTD/svg10.dtd">
<svg version="1.0" xmlns="http://www.w3.org/2000/svg"
 width="512.000000pt" height="512.000000pt" viewBox="0 0 512.000000 512.000000"
 preserveAspectRatio="xMidYMid meet">

<g transform="translate(0.000000,512.000000) scale(0.100000,-0.100000)"
fill="#000000" stroke="none">
<path d="M452 4740 c-109 -29 -187 -75 -273 -160 -87 -87 -138 -178 -164 -293
-13 -60 -16 -121 -13 -333 3 -253 4 -260 27 -297 13 -21 42 -50 64 -65 34 -23
52 -27 107 -27 55 0 73 4 107 27 22 15 51 44 64 65 23 37 24 46 29 303 5 257
6 266 29 303 13 21 42 50 64 65 l40 27 267 5 267 5 40 27 c62 41 88 90 88 168
0 78 -26 127 -88 168 l-40 27 -271 2 c-241 2 -279 0 -344 -17z"/>
<path d="M4052 4749 c-47 -14 -109 -79 -123 -131 -23 -89 12 -182 88 -229 37
-23 46 -24 304 -29 l266 -5 40 -27 c22 -15 51 -44 64 -65 23 -37 24 -46 29
-303 5 -257 6 -266 29 -303 13 -21 42 -50 64 -65 34 -23 52 -27 107 -27 55 0
73 4 107 27 22 15 51 44 64 65 23 37 24 44 27 297 4 296 -4 356 -65 479 -46
91 -160 208 -250 255 -118 62 -185 72 -467 71 -138 0 -266 -5 -284 -10z"/>
<path d="M892 3949 c-46 -14 -109 -80 -122 -128 -7 -27 -9 -424 -8 -1283 l3
-1243 24 -38 c13 -21 42 -50 64 -65 34 -23 52 -27 107 -27 55 0 73 4 107 27
22 15 51 44 64 65 l24 38 0 1265 0 1265 -24 38 c-47 76 -151 113 -239 86z"/>
<path d="M1692 3949 c-46 -14 -109 -80 -122 -128 -7 -27 -10 -305 -8 -883 l3
-843 24 -38 c13 -21 42 -50 64 -65 34 -23 52 -27 107 -27 55 0 73 4 107 27 22
15 51 44 64 65 l24 38 0 865 0 865 -24 38 c-47 76 -151 113 -239 86z"/>
<path d="M2492 3949 c-46 -14 -109 -80 -122 -128 -7 -27 -9 -424 -8 -1283 l3
-1243 24 -38 c13 -21 42 -50 64 -65 34 -23 52 -27 107 -27 55 0 73 4 107 27
22 15 51 44 64 65 l24 38 0 1265 0 1265 -24 38 c-47 76 -151 113 -239 86z"/>
<path d="M3292 3949 c-46 -14 -109 -80 -122 -128 -7 -27 -10 -305 -8 -883 l3
-843 24 -38 c13 -21 42 -50 64 -65 34 -23 52 -27 107 -27 55 0 73 4 107 27 22
15 51 44 64 65 l24 38 0 865 0 865 -24 38 c-47 76 -151 113 -239 86z"/>
<path d="M4092 3949 c-46 -14 -109 -80 -122 -128 -7 -27 -9 -424 -8 -1283 l3
-1243 24 -38 c13 -21 42 -50 64 -65 34 -23 52 -27 107 -27 55 0 73 4 107 27
22 15 51 44 64 65 l24 38 0 1265 0 1265 -24 38 c-47 76 -151 113 -239 86z"/>
<path d="M132 1549 c-45 -13 -108 -80 -121 -126 -6 -22 -11 -142 -11 -284 0
-276 11 -345 72 -462 47 -90 164 -204 255 -250 123 -61 183 -69 480 -65 l260
3 40 27 c63 41 88 90 88 169 0 54 -5 72 -27 106 -15 22 -44 51 -65 64 -37 23
-46 24 -303 29 -257 5 -266 6 -303 29 -21 13 -50 42 -65 64 l-27 40 -5 266
c-5 258 -6 267 -29 304 -47 76 -151 113 -239 86z"/>
<path d="M1692 1549 c-48 -14 -109 -80 -123 -131 -23 -89 12 -182 88 -229 57
-36 154 -34 210 3 62 41 88 90 88 168 0 77 -26 127 -85 166 -43 29 -125 39
-178 23z"/>
<path d="M3292 1549 c-48 -14 -109 -80 -123 -131 -23 -89 12 -182 88 -229 57
-36 154 -34 210 3 62 41 88 90 88 168 0 77 -26 127 -85 166 -43 29 -125 39
-178 23z"/>
<path d="M4858 1551 c-42 -14 -84 -48 -110 -89 -22 -36 -23 -47 -28 -303 l-5
-266 -27 -40 c-15 -22 -44 -51 -65 -64 -37 -23 -46 -24 -303 -29 -257 -5 -266
-6 -303 -29 -21 -13 -50 -42 -65 -64 -23 -34 -27 -52 -27 -107 0 -55 4 -73 27
-107 15 -22 44 -51 65 -64 37 -23 44 -24 297 -27 296 -4 356 4 479 65 99 50
210 161 260 260 61 123 69 183 65 479 -3 253 -4 260 -27 297 -34 55 -88 87
-152 92 -30 3 -66 1 -81 -4z"/>
</g>
</svg>
